<svg width="500" height="500" xmlns="http://www.w3.org/2000/svg" xmlns:xlink="http://www.w3.org/1999/xlink">

  <rect x="0" y="0" width="100%" height="100%" stroke="black" fill="transparent" stroke-width="1"/>

  <marker id="arrow" refX="6" refY="2"
    markerWidth="9" markerHeight="6"
    orient="auto-start-reverse">
    <path d="M 0 4 L 6 2 L 0 0" stroke="green" fill="transparent"/>
  </marker>

  <marker id="cross" refX="3" refY="3"
    markerWidth="6" markerHeight="6"
    orient="auto-start-reverse">
    <path d="M 3 0 L 3 6 M 0 3 L 6 3" stroke="blue" fill="transparent"/>
  </marker>

  <defs>
    <g id="box">
      <polyline points="-100,-50 100,-50 100,50 -100,50 -100,-50 100,-50" fill="none" stroke="black"
         marker-mid="url(#cross)" stroke-width="2"/>

      <g stroke="orange" stroke-width="2" stroke-dasharray="2,2">
        <line x1="-170" y1="-50" x2="170" y2="-50"/>
        <line x1="-170" y1="50" x2="170" y2="50"/>
        <line x1="-100" y1="-120" x2="-100" y2="120"/>
        <line x1="100" y1="-120" x2="100" y2="120"/>
      </g>

      <g stroke="green" stroke-width="2" marker-end="url(#arrow)">
        <line x1="0" y1="-50" x2="0" y2="-100"/>
        <line x1="100" y1="0" x2="150" y2="0" />
        <line x1="-100" y1="0" x2="-150" y2="0"/>
        <line x1="0" y1="50" x2="0" y2="100"/>
      </g>
    </g>
  </defs>

  <g transform="translate(200,160) rotate(45)">
    <use xlink:href="#box"/>
  </g>

  <g transform="translate(300,300) rotate(180)">
    <use xlink:href="#box"/>
  </g>

</svg>
